<svg xmlns="http://www.w3.org/2000/svg" viewBox="0 0 64 64">
  <defs>
    <linearGradient id="bg" x1="0" y1="0" x2="1" y2="1">
      <stop offset="0%" stop-color="#151515"/>
      <stop offset="100%" stop-color="#050505"/>
    </linearGradient>
    <linearGradient id="gold" x1="0" y1="0" x2="1" y2="1">
      <stop offset="0%" stop-color="#f1d58a"/>
      <stop offset="100%" stop-color="#c9a455"/>
    </linearGradient>
  </defs>
  <rect x="2" y="2" width="60" height="60" rx="16" fill="url(#bg)" stroke="#2f2a20" stroke-width="2"/>
  <circle cx="32" cy="32" r="19" fill="none" stroke="url(#gold)" stroke-width="3" opacity="0.9"/>
  <path d="M40 20c-2.8-2.2-6.2-3.3-10-3.3-8.8 0-15.3 6.4-15.3 15.3 0 9.2 6.7 15.3 15.9 15.3 3.7 0 6.9-0.9 9.8-3l-2.8-4.3c-2.1 1.5-4.3 2.2-6.6 2.2-5.8 0-9.9-4-9.9-10.2 0-6 4.1-10.2 9.7-10.2 2.5 0 4.8 0.7 6.9 2.3z" fill="url(#gold)"/>
</svg>
